<?xml version="1.0" standalone="no"?>
<!DOCTYPE svg PUBLIC "-//W3C//DTD SVG 20010904//EN"
 "http://www.w3.org/TR/2001/REC-SVG-20010904/DTD/svg10.dtd">
<svg version="1.0" xmlns="http://www.w3.org/2000/svg"
 width="1600.000000pt" height="1600.000000pt" viewBox="0 0 1600.000000 1600.000000"
 preserveAspectRatio="xMidYMid meet">
<metadata>
Created by potrace 1.14, written by Peter Selinger 2001-2017
</metadata>
<g transform="translate(0.000000,1600.000000) scale(0.100000,-0.100000)"
fill="#000000" stroke="none">
<path d="M490 8000 l0 -3400 7510 0 7510 0 0 3400 0 3400 -7510 0 -7510 0 0
-3400z m14405 2499 c73 -27 156 -104 192 -177 25 -50 28 -68 28 -152 0 -76 -4
-104 -22 -142 -30 -66 -105 -143 -172 -175 -48 -24 -68 -28 -146 -28 -114 0
-171 21 -244 89 -77 73 -104 131 -109 236 -5 98 16 170 69 237 35 44 126 109
172 122 60 17 172 12 232 -10z m-12646 -110 c6 -28 27 -135 46 -237 33 -173
66 -343 180 -932 24 -124 69 -358 100 -520 59 -308 63 -325 69 -319 2 2 30
121 61 264 113 521 145 665 200 915 30 140 83 379 116 530 33 151 64 292 70
312 l10 38 547 -2 547 -3 5 -2201 5 -2202 48 302 c27 165 72 452 102 636 29
184 77 481 105 660 28 179 75 476 105 660 29 184 77 481 105 660 28 179 76
478 106 665 29 187 70 441 89 565 20 124 39 233 41 243 5 16 38 17 562 15
l557 -3 12 -85 c7 -47 35 -229 63 -405 49 -317 105 -677 215 -1385 31 -201 72
-464 91 -585 19 -121 48 -310 65 -420 16 -110 47 -312 69 -450 22 -137 62
-394 89 -570 27 -176 58 -372 68 -435 18 -113 18 -82 21 2103 l2 2217 746 0
746 0 66 -27 c280 -111 514 -356 648 -678 18 -44 33 -75 34 -68 0 7 -9 72 -20
145 -25 174 -80 603 -80 628 0 20 7 20 447 18 l448 -3 8 -55 c7 -49 85 -530
198 -1220 21 -135 57 -353 79 -485 22 -132 58 -352 80 -490 22 -137 43 -261
46 -275 8 -28 22 43 104 525 27 160 76 450 110 645 76 444 149 870 190 1110
17 102 33 195 36 208 l4 22 1260 0 1260 0 0 -470 0 -470 -375 0 -375 0 2 -507
3 -508 358 -3 357 -2 0 -520 0 -520 -347 -2 -348 -3 -3 -472 -2 -473 365 0
365 0 0 -505 0 -505 -810 0 -810 0 0 2365 c0 1570 -3 2365 -10 2365 -5 0 -10
-11 -10 -24 0 -13 -24 -160 -54 -327 -78 -437 -252 -1426 -285 -1619 -19 -113
-43 -246 -141 -805 -27 -154 -77 -435 -110 -625 -33 -190 -83 -471 -110 -625
-27 -154 -66 -376 -87 -492 l-37 -213 -503 0 -503 0 -5 23 c-2 12 -120 715
-260 1562 -141 847 -257 1545 -259 1550 -5 15 -12 -11 -31 -115 -26 -143 -89
-363 -140 -491 -97 -240 -206 -417 -343 -555 l-74 -74 160 -478 c89 -262 231
-685 316 -940 86 -255 156 -467 156 -473 0 -6 -165 -8 -437 -7 l-438 3 -87
235 c-49 129 -104 276 -122 325 -19 50 -92 243 -161 430 -70 187 -153 410
-185 495 l-59 155 -1 -822 0 -823 -890 0 c-489 0 -890 2 -890 5 0 7 -68 367
-81 424 l-11 51 -336 -2 -336 -3 -34 -110 c-18 -60 -51 -167 -73 -237 l-40
-128 -839 0 -840 0 -1 908 c-1 754 -3 899 -14 862 -7 -25 -38 -151 -68 -280
-31 -129 -83 -347 -116 -485 -33 -137 -92 -383 -130 -545 -39 -162 -80 -332
-92 -377 l-22 -83 -228 0 -229 0 -5 23 c-3 12 -64 288 -135 612 -72 325 -151
678 -175 785 -24 107 -53 236 -64 285 l-19 90 -1 -886 -1 -887 -122 -6 c-68
-3 -274 -7 -458 -8 l-335 -3 -3 2475 c-1 1361 0 2481 3 2488 3 9 126 12 569
12 l564 0 11 -51z m12051 -1944 l0 -1995 358 -2 357 -3 0 -500 0 -500 -777 -3
-778 -2 0 2493 c0 1372 3 2497 7 2500 3 4 192 7 420 7 l413 0 0 -1995z"/>
<path d="M14692 10446 c-82 -27 -141 -76 -180 -151 -38 -72 -38 -179 0 -250
54 -103 144 -158 260 -158 246 0 373 288 209 476 -66 75 -198 113 -289 83z
m199 -135 c20 -25 25 -81 9 -110 -5 -10 -23 -24 -39 -31 l-31 -12 33 -39 c17
-21 42 -56 55 -79 l23 -41 -28 3 c-21 2 -36 15 -59 51 -54 82 -72 97 -120 97
l-43 0 -3 -72 c-3 -65 -5 -73 -23 -73 -19 0 -20 8 -23 168 l-2 169 116 -4
c108 -3 117 -5 135 -27z"/>
<path d="M14690 10250 l0 -50 73 0 c80 0 97 9 97 50 0 41 -17 50 -97 50 l-73
0 0 -50z"/>
<path d="M7670 8800 l0 -742 52 7 c281 39 452 261 489 637 13 130 -3 245 -57
408 -81 244 -238 399 -431 425 l-53 7 0 -742z"/>
<path d="M5471 8395 c-1 -5 -31 -212 -66 -460 -76 -525 -145 -1007 -145 -1017
0 -5 106 -8 235 -8 l235 0 -5 23 c-3 12 -30 168 -60 347 -171 1023 -192 1144
-194 1115z"/>
</g>
</svg>
